<?xml version="1.0" encoding="UTF-8" standalone="no"?>
<svg
   xmlns:dc="http://purl.org/dc/elements/1.1/"
   xmlns:cc="http://creativecommons.org/ns#"
   xmlns:rdf="http://www.w3.org/1999/02/22-rdf-syntax-ns#"
   xmlns:svg="http://www.w3.org/2000/svg"
   xmlns="http://www.w3.org/2000/svg"
   xmlns:sodipodi="http://sodipodi.sourceforge.net/DTD/sodipodi-0.dtd"
   xmlns:inkscape="http://www.inkscape.org/namespaces/inkscape"
   viewBox="0 0 65.251091 83.753342"
   id="svg2"
   version="1.1"
   inkscape:version="0.91 r13725"
   sodipodi:docname="cyclist.svg"
   width="65.251091"
   height="83.753342">
  <metadata
     id="metadata12">
    <rdf:RDF>
      <cc:Work
         rdf:about="">
        <dc:format>image/svg+xml</dc:format>
        <dc:type
           rdf:resource="http://purl.org/dc/dcmitype/StillImage" />
        <dc:title></dc:title>
      </cc:Work>
    </rdf:RDF>
  </metadata>
  <defs
     id="defs10" />
  <sodipodi:namedview
     pagecolor="#ffffff"
     bordercolor="#666666"
     borderopacity="1"
     objecttolerance="10"
     gridtolerance="10"
     guidetolerance="10"
     inkscape:pageopacity="0"
     inkscape:pageshadow="2"
     inkscape:window-width="1366"
     inkscape:window-height="705"
     id="namedview8"
     showgrid="false"
     fit-margin-top="0"
     fit-margin-left="0"
     fit-margin-right="0"
     fit-margin-bottom="0"
     inkscape:zoom="4.6184393"
     inkscape:cx="70.697764"
     inkscape:cy="29.82275"
     inkscape:window-x="-8"
     inkscape:window-y="-8"
     inkscape:window-maximized="1"
     inkscape:current-layer="svg2" />
  <g
     id="g4185"
     transform="translate(-4.110179,-0.56695098)">
    <g
       style="fill:#e74c3c;fill-opacity:1"
       id="g4"
       transform="matrix(0.43847856,0,0,0.43847856,-120.06338,8.363009)">
      <path
         style="fill:#e74c3c;fill-opacity:1"
         inkscape:connector-curvature="0"
         id="path6"
         d="m 378.69186,28.69798 -2.53125,0.0625 -2.53125,0.0625 -2.5625,1.25 -2.59375,1.28125 -1.65625,2.15625 -1.65625,2.15625 -0.5,1.9375 -0.53125,1.96875 0.21875,1.90625 0.21875,1.90625 -3.40625,0 -3.40625,0 -1.875,1.28125 c -1.02662,0.71975 -2.70059,1.96813 -3.71875,2.75 l -1.84375,1.40625 -2.875,0 -2.84375,0 1.03125,1.125 1.0625,1.125 1.8125,0.53125 1.8125,0.5625 2.96875,0 2.9375,0 0.90625,-0.5 c 1.74445,-0.93359 0.92212,-0.13105 -1.5625,1.53125 -1.37106,0.91731 -3.52227,2.60197 -4.78125,3.71875 l -2.3125,2.03125 0.5625,0.3125 0.53125,0.34375 -2.0625,0.59375 -2.03125,0.59375 -1.5625,1.90625 c -0.84874,1.04775 -1.53126,2.09533 -1.53125,2.3125 l 0,0.375 1.78125,0.1875 1.78125,0.1875 -2.34375,0.09375 -2.3125,0.0625 0.28125,0.3125 c 0.16086,0.16084 0.98173,0.46668 1.84375,0.6875 l 1.59375,0.40625 -2.375,-0.25 -2.375,-0.25 -0.875,1.5625 -0.875,1.53125 0.84375,0.625 0.84375,0.59375 -0.46875,0 c -0.26362,-1e-5 -1.31701,0.77365 -2.34375,1.6875 l -1.875,1.65625 1.5,0 1.53125,0 0.3125,0.53125 0.34375,0.53125 -0.65625,0.40625 -0.65625,0.40625 -2,0 -1.96875,0.03125 -1.125,1.53125 c -0.60536,0.84506 -1.39124,2.06218 -1.75,2.71875 l -0.65625,1.1875 -0.21875,3.5 -0.25,3.46875 1.25,1.1875 c 0.68883,0.6387 1.25001,1.36923 1.25,1.625 -1e-5,0.25577 0.52049,1.27414 1.15625,2.28125 l 1.15625,1.84375 2.15625,-0.5 2.1875,-0.5 0,-0.53125 0,-0.53125 -1.46875,-0.84375 c -0.80154,-0.47348 -1.34536,-0.96716 -1.21875,-1.09375 0.12661,-0.12659 2.21853,1.24138 4.65625,3.0625 4.54974,3.39883 7.75949,5.22524 11.09375,6.28125 1.04463,0.33084 2.15371,0.78165 2.46875,1.03125 l 0.5625,0.46875 0.40625,-0.25 0.40625,-0.25 2.09375,0.71875 c 1.15559,0.39813 2.37046,0.92437 2.6875,1.1875 l 0.59375,0.5 0.4375,-0.3125 0.46875,-0.28125 0.3125,0.5 0.28125,0.46875 -0.6875,0 -0.6875,0 -1.5625,1.78125 -1.5625,1.78125 -5.25,0.3125 c -2.88919,0.17396 -7.65579,0.35308 -10.59375,0.375 l -5.34375,0.0312 0,-0.5 0,-0.53125 -1.03125,0.15625 -1.03125,0.15625 -0.90625,1.65625 c -0.50187,0.91404 -1.90845,3.05249 -3.125,4.75 -1.50411,2.14686 -2.90227,4.15635 -4.3125,6.1875 -4.40065,-2.81379 -9.6205,-4.46875 -15.21875,-4.46875 -15.62573,0 -28.34375,12.71805 -28.34375,28.34375 0,15.6257 12.71805,28.34375 28.34375,28.34375 15.6257,0 28.34375,-12.71805 28.34375,-28.34375 -2e-5,-8.63993 -3.8818,-16.39018 -10,-21.59375 1.47761,-2.13329 2.98361,-4.28229 4.59375,-6.53125 0.73514,-1.05858 1.47733,-1.91628 1.65625,-1.90625 0.24751,0.0139 7.05089,16.77427 8.90625,21.9375 l 0.3125,0.84375 -0.65625,0 -0.65625,0 -0.46875,0.84375 c -0.25778,0.46924 -0.94939,1.80576 -1.53125,2.96875 l -1.0625,2.125 0,1.625 0,1.625 0.96875,2.0625 1,2.0625 1.75,1.28125 c 0.95261,0.71108 1.92631,1.54132 2.1875,1.84375 l 3.46875,0.0625 2.96875,-0.5 2.125,-1.875 2.09375,-1.84375 0.5,-1.75 c 0.26784,-0.96428 0.49856,-2.57498 0.5,-3.5625 l 0,-1.78125 0.78125,-0.3125 0.8125,-0.3125 0.1875,0.5625 0.1875,0.5625 0.6875,0 0.65625,0 0.0625,-0.84375 0.0625,-0.8125 0.21875,0.8125 0.1875,0.84375 1.1875,0 c 0.64867,0 2.08607,-0.22265 3.1875,-0.5 l 2,-0.5 0.625,-1.75 c 0.33946,-0.96314 0.7104,-2.30102 0.84375,-2.96875 l 0.25,-1.21875 -0.75,-0.625 -0.75,-0.625 -0.71875,0.59375 -0.71875,0.59375 0,-0.84375 0,-0.8125 -1.15625,0.21875 -1.1875,0.21875 0.25,-0.40625 0.25,-0.40625 -1.1875,-0.46875 c -0.66859,-0.2542 -1.21874,-0.56629 -1.21875,-0.71875 l 0,-0.28125 0.46875,0.28125 0.46875,0.3125 0.875,-0.625 c 0.48561,-0.34157 3.87196,-3.44178 7.5,-6.875 3.62804,-3.43322 7.27355,-6.82581 8.125,-7.53125 l 1.5625,-1.28125 2.40625,4.34375 c -5.75549,5.19178 -9.375,12.69037 -9.375,21.03125 2e-5,15.62571 12.71805,28.34375 28.34375,28.34375 15.6257,0 28.34375,-12.71805 28.34375,-28.34375 0,-15.6257 -12.71805,-28.34375 -28.34375,-28.34375 -5.50202,0 -10.64727,1.58711 -15,4.3125 l -1.4375,-2.96875 c -0.67906,-1.52364 -1.88756,-4.32537 -2.6875,-6.21875 l -1.4375,-3.4375 -0.53125,0 c -0.77847,0.0223 -2.1875,1.18847 -2.1875,1.8125 l 0,0.5625 -5.46875,0 -5.4375,0 -0.71875,1.40625 -0.75,1.40625 7.25,0.125 7.25,0.125 0.125,1.1875 0.15625,1.1875 -0.46875,-0.6875 -0.5,-0.71875 -1.8125,1.78125 -1.8125,1.78125 -0.5625,0 -0.59375,0 -0.0312,0.59375 -0.0312,0.59375 -5.1875,4.5 c -2.85182,2.48097 -6.38974,5.63697 -7.875,7.03125 l -2.71875,2.5625 0.65625,1 0.625,1.03125 -0.8125,-0.6875 -0.84375,-0.6875 0.28125,-1.3125 0.25,-1.34375 -0.875,0 -0.875,0 -0.75,1.0625 -0.75,1.0625 0.71875,-2.59375 c 0.40101,-1.43634 1.21957,-3.68331 1.8125,-5 1.2871,-2.8582 8.05912,-15.05959 9.46875,-17.0625 l 1,-1.40625 0,-1.71875 0,-1.75 -1.90625,-2.75 c -1.03868,-1.51731 -3.27122,-4.18394 -4.96875,-5.9375 l -3.09375,-3.1875 -4.84375,-3.1875 -4.875,-3.1875 0,-0.4375 0,-0.46875 1.21875,0.8125 1.25,0.8125 0.90625,-1.15625 c 0.49541,-0.63585 1.21624,-1.73724 1.59375,-2.46875 l 0.6875,-1.34375 -1.0625,-0.40625 -1.03125,-0.4375 1.25,-0.03125 1.25,-0.03125 1.375,-1.59375 c 0.74524,-0.87375 1.60574,-1.97145 1.9375,-2.46875 l 0.59375,-0.90625 -0.4375,0.96875 -0.46875,1 0.71875,2.03125 c 0.38385,1.11406 1.13663,2.91437 1.6875,4 l 1,1.96875 3.875,4.03125 c 2.13818,2.2198 4.37679,4.68529 4.96875,5.46875 0.59196,0.78346 1.234,1.44515 1.40625,1.46875 0.17225,0.0236 1.09262,0.37952 2.0625,0.8125 l 1.78125,0.78125 0.46875,0.90625 c 0.2614,0.48839 0.38012,0.96287 0.28125,1.0625 -0.0989,0.09963 0.45781,0.22649 1.21875,0.28125 l 1.375,0.09375 0,-0.375 c 1e-5,-0.21867 -0.32703,-0.6749 -0.71875,-1 -0.39172,-0.3251 -0.71878,-0.80439 -0.71875,-1.0625 l 0,-0.46875 0.84375,1.03125 0.84375,1.03125 0.8125,-0.3125 0.84375,-0.3125 0,-0.625 0,-0.625 -0.84375,-0.21875 -0.8125,-0.21875 1.03125,-0.0625 1.03125,-0.0625 0.3125,0.5 0.3125,0.46875 -1.5,1.40625 -1.46875,1.375 -1.0625,0.125 -1.03125,0.15625 -0.125,2.15625 -0.125,2.125 0.4375,0.65625 0.40625,0.65625 0.78125,-0.28125 0.75,-0.28125 0,-1.375 0,-1.34375 1.96875,-1.84375 1.96875,-1.8125 -0.4375,2.8125 c -0.23136,1.54504 -0.38128,4.06766 -0.34375,5.59375 l 0.0625,2.78125 0.53125,0.5 0.5,0.53125 1.21875,-1.15625 c 0.67013,-0.62954 1.49979,-1.59603 1.8125,-2.15625 0.31271,-0.56022 1.01022,-1.86145 1.5625,-2.875 l 1,-1.84375 0.3125,-1.78125 0.34375,-1.78125 -0.71875,0 -0.6875,0 -0.3125,-0.9375 c -0.16576,-0.52232 -0.45461,-0.93751 -0.65625,-0.9375 -0.20164,1e-5 -0.6206,-0.52926 -0.90625,-1.15625 l -0.5,-1.125 0.9375,-0.25 0.9375,-0.25 -0.59375,0.71875 -0.59375,0.75 1.03125,0.84375 c 0.57914,0.46893 1.06252,1.09042 1.0625,1.375 l 0,0.5 1.875,0 1.84375,0 0.3125,-0.9375 0.3125,-0.96875 1.15625,0.3125 1.15625,0.28125 0,-1 0,-1 -0.65625,0 -0.625,0 -1.46875,-1.84375 -1.5,-1.84375 -1.625,-0.3125 c -0.90654,-0.17008 -2.71889,-0.61029 -4.03125,-1 l -2.40625,-0.71875 -4.65625,-4.65625 c -2.56017,-2.55453 -5.34711,-5.17309 -6.21875,-5.8125 l -1.59375,-1.15625 0.5,-3.71875 c 0.28405,-2.04211 0.53127,-4.6458 0.53125,-5.8125 l 0,-2.125 1.0625,-1.9375 c 0.58761,-1.06964 1.33366,-2.41658 1.65625,-2.96875 l 0.59375,-1 0,-1.5625 0,-1.59375 -0.46875,-0.90625 -0.5,-0.90625 -0.8125,-0.03125 -0.8125,0 0.71875,-0.46875 0.6875,-0.46875 -1.0625,-0.28125 -1.0625,-0.28125 0.28125,-0.46875 0.28125,-0.4375 0.6875,0.5625 0.65625,0.5625 0.25,-0.25 0.25,-0.25 -2.5625,-2.9375 c -1.42242,-1.63098 -2.85599,-3.4743 -3.1875,-4.09375 l -0.625,-1.125 0.375,-0.375 0.34375,-0.34375 1.28125,1.4375 c 0.69659,0.79433 2.03239,2.39836 3,3.5625 l 1.78125,2.125 0,-3.40625 0.0312,-3.375 0.71875,-0.59375 0.71875,-0.59375 0,4.75 0,4.71875 1.8125,0.5625 c 1.00964,0.30248 2.19826,0.53124 2.625,0.53125 l 0.71875,-0.375 0.0625,-0.8125 0,-1.1875 0.34375,-0.59375 0.65625,-0.84375 -0.625,-0.53125 1,-0.71875 1,-0.6875 0,-0.6875 0,-0.6875 0.53125,0 0.5,0 -0.34375,-0.8125 c -0.19562,-0.45704 -0.42816,-1.46856 -0.5,-2.25 l -0.125,-1.4375 0.5625,-0.34375 c 0.30482,-0.19392 1.24498,-0.37099 2.09375,-0.375 l 1.5625,0 0,-1 c 10e-6,-0.55731 -0.27752,-1.89384 -0.59375,-2.96875 l -0.5625,-1.96875 -2.625,-2.625 -2.65625,-2.65625 -2.375,-0.65625 -2.375,-0.65625 z m -4.25,2.8125 3.15625,0 3.15625,0 2.0625,1.4375 2.0625,1.4375 1.0625,1.59375 c 0.59147,0.87766 1.06249,1.87046 1.0625,2.1875 l 0,0.5625 -3.15625,0.3125 -3.15625,0.34375 -2.90625,0.96875 -2.875,1 -3.3125,0.21875 -3.34375,0.1875 -0.5625,-0.40625 -0.59375,-0.40625 0.5,-1.78125 c 0.27027,-0.97881 0.93228,-2.52823 1.46875,-3.4375 l 0.96875,-1.65625 2.1875,-1.28125 2.21875,-1.28125 z m 2.8125,0.125 -1.9375,0.53125 -1.9375,0.53125 -1.59375,1.0625 -1.625,1.09375 -0.15625,0.8125 c -0.2006,1.04161 -0.037,1.03847 2.375,-0.21875 l 2,-1.0625 2.65625,-0.1875 2.65625,-0.1875 1.75,0.5 1.78125,0.46875 0.21875,-0.40625 0.25,-0.375 -1.34375,-0.96875 -1.375,-1 -1.875,-0.28125 -1.84375,-0.3125 z m 2.25,3.5625 -2.53125,0.375 c -3.06646,0.47942 -6.30642,1.65146 -7.0625,2.5625 l -0.53125,0.6875 0.28125,0.5 c 0.3813,0.61694 0.0527,0.66091 3.375,-0.53125 l 2.8125,-1.03125 3.6875,-0.21875 3.6875,-0.21875 0,-0.59375 0,-0.59375 -1.84375,-0.46875 -1.875,-0.46875 z m -9.03125,13.875 c 0.0997,-0.09971 0.86658,0.54189 1.71875,1.4375 0.85217,0.89561 1.39007,1.62402 1.1875,1.59375 -0.20257,-0.03027 -0.75857,-0.1612 -1.21875,-0.28125 l -0.8125,-0.21875 0.21875,-0.40625 0.25,-0.40625 -0.75,-0.75 c -0.42522,-0.42524 -0.69344,-0.86905 -0.59375,-0.96875 z m -8.15625,0.21875 0,0.4375 0,0.40625 -1.0625,0.25 c -0.58758,0.12744 -1.50895,0.38797 -2.03125,0.59375 l -0.9375,0.375 0.25,-0.28125 c 0.14401,-0.16383 1.06535,-0.62767 2.03125,-1.03125 l 1.75,-0.75 z m 10.15625,3.3125 c 0.23818,-0.01899 0.45049,-0.01693 0.59375,0 0.19102,0.02256 0.24274,0.08681 0.125,0.1875 -0.1088,0.09307 -0.92968,0.30102 -1.84375,0.46875 l -1.65625,0.3125 0.71875,-0.46875 c 0.36209,-0.23736 1.348,-0.44307 2.0625,-0.5 z m -3.5625,2.875 c 0.13058,-1e-5 -0.37439,0.65402 -1.125,1.4375 -0.75061,0.78348 -1.46316,1.40625 -1.59375,1.40625 -0.13059,0 0.37435,-0.6228 1.125,-1.40625 0.75065,-0.78345 1.46317,-1.43749 1.59375,-1.4375 z m -3.75,7.59375 0.53125,0 0.53125,0 -0.34375,0.84375 c -0.18839,0.45702 -0.49045,2.00114 -0.6875,3.4375 l -0.375,2.59375 -0.0625,-1.78125 -0.0625,-1.78125 -1.1875,0.28125 -1.1875,0.3125 0,-0.46875 0,-0.46875 1.4375,-0.59375 1.40625,-0.59375 0,-0.875 0,-0.90625 z m 0.125,12.125 0.21875,0.8125 c 0.11943,0.45702 0.11943,1.19922 0,1.65625 l -0.21875,0.84375 0,-1.65625 0,-1.65625 z m -19,1.1875 c 0.26088,-1e-5 1.31666,0.81668 2.34375,1.84375 l 1.875,1.875 -0.625,0.96875 -0.59375,1 -0.96875,0.03125 -0.9375,0.03125 0.9375,0.40625 0.9375,0.40625 -1.28125,0.03125 -1.3125,0.03125 0,0.5 0,0.46875 1.90625,-0.3125 1.875,-0.28125 0,0.96875 0,1 1.5625,0.8125 c 3.00652,1.54318 7.77039,4.84149 10.09375,7 l 2.375,2.1875 -2.625,2.375 c -2.58487,2.34211 -3.31252,2.7931 -3.3125,1.96875 l 0,-0.4375 -6.0625,-4.0625 c -6.81938,-4.57446 -7.42233,-5.07574 -9.28125,-7.5625 l -1.34375,-1.75 0.3125,-1.78125 c 0.56034,-3.38316 2.87322,-7.71875 4.125,-7.71875 z m 18.96875,3.0625 0.25,0.71875 c 0.13716,0.39172 1.22418,1.61888 2.4375,2.71875 2.82198,2.55816 2.46381,2.60147 -0.5,0.0625 l -2.28125,-1.9375 0.0625,-0.78125 0.0312,-0.78125 z m -33.1875,3.34375 0.1875,1.40625 c 0.0978,0.78344 0.2782,1.91717 0.40625,2.5 l 0.25,1.0625 1.46875,1.6875 c 0.81446,0.9276 1.38886,1.76738 1.28125,1.875 -0.35097,0.35097 -1.17544,-0.44911 -2.46875,-2.375 l -1.25,-1.875 0.0625,-2.15625 0.0625,-2.125 z m 38.09375,2.03125 1.6875,1.21875 c 0.93208,0.67137 3.13028,1.86513 4.875,2.65625 1.74472,0.79112 3.15622,1.55952 3.15625,1.6875 10e-6,0.3335 -1.98982,0.22538 -2.875,-0.15625 -0.85772,-0.36979 -3.09808,-2.0994 -5.3125,-4.0625 l -1.53125,-1.34375 z m 23.96875,8.40625 -0.125,1.1875 -0.0937,1.1875 -1.5625,0.15625 -1.53125,0.125 0,-0.4375 0,-0.4375 1.1875,0.25 1.1875,0.21875 0.46875,-1.125 0.46875,-1.125 z m -53.96875,1.59375 -4,1.03125 -4,1.03125 -2.84375,-0.28125 c -1.56692,-0.15847 -3.26401,-0.30416 -3.78125,-0.3125 l -0.9375,-0.03125 -0.59375,0.84375 c -0.84824,1.16006 -0.78546,1.53967 0.4375,2.03125 l 1.09375,0.4375 -0.96875,0.0625 -0.9375,0.0625 0.9375,0.40625 0.96875,0.40625 -0.5625,0.0312 -0.53125,0.0312 0.21875,0.96875 c 0.1366,0.5223 0.39711,0.97454 0.5625,1 0.16539,0.0255 1.98803,0.11227 4.03125,0.1875 l 3.6875,0.125 2.625,-1.40625 2.625,-1.40625 -0.3125,0.53125 -0.3125,0.53125 1.46875,1.65625 c 0.81245,0.92532 2.01276,2.54316 2.65625,3.5625 l 1.15625,1.84375 1.21875,-0.46875 c 0.67055,-0.25494 1.4718,-0.47274 1.78125,-0.46875 l 0.5625,0.0312 -0.71875,0.4375 -0.6875,0.46875 5.625,0 5.625,0.0312 -0.25,-0.6875 c -0.13988,-0.36455 -0.52173,-1.51886 -0.84375,-2.59375 -0.68694,-2.29284 -0.88155,-2.47105 -4,-3.59375 -1.30576,-0.4701 -3.49479,-1.50676 -4.875,-2.28125 l -2.5,-1.40625 -0.65625,0.25 -0.625,0.25 0.0625,-0.71875 0.0625,-0.71875 -1.21875,-0.9375 -1.25,-0.9375 z m 45.1875,0.375 1.03125,0.5625 c 0.56943,0.30337 1.52369,1.19941 2.09375,2 l 1.03125,1.46875 0.65625,-0.25 0.65625,-0.25 0,0.84375 c 10e-6,0.47515 -0.26059,1.61228 -0.5625,2.5 l -0.53125,1.59375 -1.40625,1.78125 -1.375,1.78125 -0.90625,0 -0.90625,0 0,-2.21875 0,-2.21875 0.75,-3.03125 0.75,-3 -0.625,-0.78125 -0.65625,-0.78125 z m -9.84375,0.3125 c -0.38814,0.04222 -0.23445,0.46521 0.4375,1.25 l 0.84375,0.96875 0.46875,-0.125 c 0.25049,-0.0835 0.5222,-0.41025 0.625,-0.71875 l 0.1875,-0.5625 -1.28125,-0.5 c -0.62022,-0.23582 -1.04836,-0.33784 -1.28125,-0.3125 z m -34,2.8125 c 0.1003,-0.01927 0.19159,-0.02715 0.21875,0 0.10304,0.10301 -0.55797,0.53442 -1.46875,0.96875 -0.91078,0.43433 -1.65623,0.71341 -1.65625,0.59375 10e-6,-0.28429 2.20424,-1.42768 2.90625,-1.5625 z m -8.77614,5.14523 1.8783,4.18329 1.6875,-0.6875 -2.13341,-4.01602 -1.43239,0.52023 z m 49.74489,0.44852 c -0.43915,0 -3.0625,1.41622 -3.0625,1.65625 10e-6,0.38173 0.85901,0.26432 2.125,-0.3125 1.06292,-0.48429 1.65971,-1.34376 0.9375,-1.34375 z m -54.34375,2.84375 0,1.15625 0,1.15625 1,1.6875 c 1.13264,1.91969 1.64236,2.11758 2,0.75 l 0.25,-0.96875 0.75,0.3125 0.75,0.28125 0,-0.75 0,-0.78125 -0.9375,-0.59375 -0.96875,-0.59375 0,-0.8125 0,-0.84375 -1.40625,0 -1.4375,0 z m 28.03125,4.75 -0.0312,0.34375 c -0.004,0.19588 -0.21819,0.67076 -0.5,1.0625 l -0.53125,0.71875 0.28125,-0.78125 0.25,-0.8125 -2,-0.1875 -2,-0.1875 2.28125,-0.0625 2.25,-0.0937 z m -17.5625,0.46875 4.84375,0.0625 4.875,0.0625 -0.84375,0.21875 -0.84375,0.21875 0.3125,1.03125 0.46875,1.5 0.15625,0.46875 -2.78125,1.78125 c -1.30252,1.07403 -2.86213,2.28124 -3.125,2.28125 l -0.375,0.21875 -1.46875,-3.8125 c -0.68065,-1.70025 -1.21873,-3.3041 -1.21875,-3.5625 l 0,-0.46875 z m 65.0625,5.65625 c 13.732,1e-5 24.84375,11.11177 24.84375,24.84375 0,13.73198 -11.11177,24.84375 -24.84375,24.84375 -13.73198,0 -24.84375,-11.11177 -24.84375,-24.84375 10e-6,-7.03758 2.89973,-13.38811 7.59375,-17.90625 l 3.5625,6.46875 4.03125,6.3125 1.78125,2.34375 2.625,2.0625 c 1.43635,1.13134 3.12586,2.26934 3.75,2.53125 l 1.125,0.46875 0.875,-0.78125 0.90625,-0.8125 0,-0.84375 0,-0.84375 -0.75,-0.75 -0.75,-0.71875 -1.09375,0 -1.125,0 -2.40625,-2.65625 -2.4375,-2.6875 -2.84375,-5.75 -3.5,-7.3125 c 3.88205,-2.51065 8.52772,-3.96875 13.5,-3.96875 z m -49.40625,2.375 0,0.84375 c -0.009,1.2883 -1.13289,5.18536 -2.65625,9.28125 l -1.34375,3.6875 -0.59375,0 c -0.31722,0 -0.68945,0.21907 -0.84375,0.46875 l -0.28125,0.4375 1.15625,0.75 c 0.63742,0.41764 1.61017,0.80261 2.15625,0.84375 l 0.96875,0.0625 0,0.625 0,0.625 -0.375,0 c -0.21762,0 -0.54755,-0.14129 -0.71875,-0.3125 -0.1712,-0.17121 -1.07869,-0.43852 -2.03125,-0.59375 l -1.75,-0.28125 -1.34375,-3.40625 -1.375,-3.40625 1.3125,-1.40625 c 0.71813,-0.7589 2.32217,-2.67899 3.5625,-4.28125 l 2.25,-2.90625 0.96875,-0.5 0.9375,-0.53125 z m -42.71875,0.0312 c 4.86652,0 9.4196,1.39929 13.25,3.8125 -1.93954,2.79446 -3.88688,5.58975 -6,8.59375 l -2.46875,3.5 -3.34375,1.59375 -3.3125,1.59375 -1.5625,1.53125 c -0.86125,0.8383 -1.8142,1.95322 -2.125,2.5 l -0.5625,1 0.53125,1.71875 0.5,1.71875 0.40625,0 0.40625,0 0,0.6875 0,0.71875 0.46875,0 c 0.26116,0 0.46874,0.2076 0.46875,0.46875 l 0,0.5 -1.1875,0 -1.15625,0 -0.75,-1.125 -0.71875,-1.125 0.5,-1.3125 0.5,-1.34375 -0.25,-0.21875 -0.25,-0.25 -0.28125,0.90625 c -0.16177,0.4944 -0.37023,1.17046 -0.46875,1.5 l -0.1875,0.59375 0.53125,1.1875 0.53125,1.15625 0.9375,0.28125 c 0.50952,0.16171 1.65705,0.31249 2.5625,0.3125 l 1.65625,0 0.25,0.625 0.25,0.65625 0.59375,-0.25 0.625,-0.25 -0.25,1.3125 -0.25,1.28125 -0.6875,-0.90625 -0.6875,-0.90625 0.3125,1.0625 0.3125,1.09375 -0.75,0.28125 -0.75,0.28125 0,1.34375 0,1.375 1.09375,0.5 1.0625,0.53125 -0.84375,-0.6875 -0.8125,-0.65625 0,-0.75 0,-0.78125 1.65625,-0.78125 c 0.91827,-0.43573 1.79755,-0.96109 1.9375,-1.1875 l 0.25,-0.4375 -0.71875,0.28125 -0.6875,0.28125 0.25,-1 0.28125,-1 0.71875,0.59375 0.71875,0.59375 -0.5625,-1.0625 c -0.31308,-0.58761 -0.77929,-1.0625 -1.03125,-1.0625 l -0.4375,0 0,-0.53125 0,-0.53125 0.6875,0.28125 0.71875,0.28125 0,-0.46875 0,-0.46875 0.71875,0 0.71875,0 0,-0.46875 0,-0.46875 0.75,0 0.78125,0 -0.28125,-0.71875 -0.28125,-0.71875 0.4375,0 0.40625,0 -0.15625,-2.8125 -0.1875,-2.84375 0.40625,-0.25 c 0.21236,-0.13124 2.56458,-3.32319 5.25,-7.09375 2.14777,-2.65855 4.03979,-5.28521 5.90625,-7.9375 5.20965,4.55232 8.5,11.24859 8.5,18.71875 -3e-5,13.73198 -11.11177,24.84375 -24.84375,24.84375 -13.73198,0 -24.84375,-11.11177 -24.84375,-24.84375 0,-13.73198 11.11177,-24.84375 24.84375,-24.84375 z m 98.5,1.53125 -0.71875,0.28125 -0.71875,0.28125 0,1.5625 0,1.59375 1.78125,0.625 c 0.9793,0.3517 2.52348,1.15848 3.4375,1.78125 l 1.65625,1.125 1.09375,-1.21875 c 0.5876,-0.67541 1.06249,-1.38618 1.0625,-1.59375 0,-0.46 -3.95018,-2.94597 -6.0625,-3.8125 l -1.53125,-0.625 z m -71.40625,0.8125 -0.71875,1.15625 -0.53125,0.90625 c -0.18277,0.84875 -0.6419,2.11147 -1,2.8125 l -0.625,1.28125 1.25,2.53125 c 0.6869,1.38822 1.45466,2.78997 1.71875,3.125 l 0.46875,0.59375 1.34375,-1.53125 1.34375,-1.5625 -0.15625,-0.5 c -0.0781,-0.26115 -0.74367,-2.22047 -1.5,-4.375 l -1.1875,-3.28125 -0.40625,-1.15625 z m 13.71875,10.8125 0,0.5625 0,0.5625 1.0625,0.4375 1.09375,0.4375 -0.78125,0.0312 -0.78125,0.0312 -0.59375,-0.75 -0.59375,-0.71875 0.28125,-0.28125 0.3125,-0.3125 z m 6.1875,1.1875 2.46875,0.9375 c 1.37114,0.52028 2.58639,1.05639 2.6875,1.15625 0.10111,0.0999 -0.49375,0.12007 -1.3125,0.0625 l -1.46875,-0.0937 0,-0.40625 0,-0.375 -0.5,0.28125 -0.46875,0.3125 0,-0.5 0,-0.5 -0.96875,0 -0.96875,0 0.25,-0.4375 0.28125,-0.4375 z m 2.40625,2.53125 -0.5,1.03125 c -0.83671,1.73204 -0.52851,1.87745 0.75,0.375 l 1.21875,-1.40625 -0.53125,1.03125 c -0.28434,0.57042 -0.50001,1.19177 -0.5,1.375 l 0,0.34375 2.0625,-0.3125 c 1.14494,-0.15692 2.97343,-0.59354 4.0625,-0.96875 l 2,-0.65625 -0.15625,0.78125 -0.15625,0.78125 -1.65625,0.34375 c -0.91126,0.19719 -4.32931,0.82376 -7.59375,1.375 -3.26444,0.55124 -6.47212,1.06212 -7.125,1.15625 l -1.1875,0.1875 -1.1875,-0.5625 -1.1875,-0.53125 2.84375,-0.34375 2.84375,-0.34375 0.15625,-0.46875 0.15625,-0.46875 0.875,0.21875 0.875,0.21875 1.03125,-1.09375 1.03125,-1.125 -0.3125,0.84375 -0.34375,0.8125 0.53125,0 c 0.28911,0 0.53124,-0.16376 0.53125,-0.375 10e-6,-0.21124 0.34387,-0.80556 0.75,-1.3125 l 0.71875,-0.90625 z m -45.5625,0.15625 -0.625,0.96875 -0.625,1 -0.71875,0.0312 c -0.3942,0.0194 -1.25339,0.13847 -1.90625,0.25 l -1.1875,0.1875 1.4375,-0.875 c 0.78348,-0.4943 1.92716,-1.06824 2.53125,-1.25 l 1.09375,-0.3125 z m 48.84375,3.875 0.71875,0 0.71875,0 0,0.46875 0,0.46875 -0.71875,0 -0.71875,0 0,-0.46875 0,-0.46875 z m -15.375,1.8125 1.125,0.15625 1.125,0.15625 0.1875,0.59375 0.1875,0.59375 -1.375,-0.28125 -1.40625,-0.28125 -0.3125,0.8125 -0.3125,0.84375 0.53125,0.625 c 0.71229,0.85825 1.34917,0.83164 2.40625,-0.125 l 0.875,-0.78125 0,0.5 c 10e-6,0.28298 -0.33962,0.87087 -0.75,1.28125 -0.90067,0.90069 -1.58438,0.93112 -2.6875,0.0937 l -0.84375,-0.65625 0,-0.90625 0,-0.9375 0.625,-0.84375 0.625,-0.84375 z m -5.5625,2.875 c 0.086,-0.009 0.18319,0.0582 0.3125,0.1875 0.15169,0.15169 0.21672,0.76497 0.125,1.375 l -0.1875,1.09375 -0.3125,-1.15625 c -0.24614,-0.87645 -0.19555,-1.47321 0.0625,-1.5 z m 1.96875,3.6875 0.8125,0.78125 0.78125,0.8125 -0.4375,0 c -0.25181,-0.004 -0.77206,-0.22579 -1.15625,-0.46875 l -0.71875,-0.4375 0.375,-0.34375 0.34375,-0.34375 z m -51.53125,0.71875 -0.5625,0.0312 c -0.30151,0.004 -1.00612,0.12377 -1.59375,0.28125 l -1.09375,0.28125 0,0.75 c 0,1.14318 1.70696,4.3943 3.34375,6.375 0.80929,0.97933 1.6505,1.78125 1.84375,1.78125 0.19325,0 0.91787,-0.60564 1.625,-1.34375 l 1.28125,-1.34375 -1,-0.90625 c -0.55965,-0.50239 -1.66103,-2.03518 -2.4375,-3.40625 l -1.40625,-2.5 z m 18.34375,5.09375 -1,0.5 c -0.54163,0.28987 -0.96876,0.74804 -0.96875,1 10e-6,0.747 0.86948,0.52011 1.4375,-0.375 l 0.5,-0.84375 -0.15625,1.21875 -0.1875,1.1875 1.5625,-0.1875 1.375,-0.15625 c 0.047,-0.049 0.11911,-0.10983 0.15625,-0.15625 l 0.0625,-0.0937 0,-0.25 0,-0.46875 -1.15625,0.21875 -1.15625,0.21875 -0.21875,-0.90625 -0.25,-0.90625 z" />
    </g>
    <g
       transform="matrix(0.71861764,0,0,0.71861764,36.553108,-738.45943)"
       id="g4142">
      <path
         style="fill:#e74c3c"
         inkscape:connector-curvature="0"
         d="M 12,0 C 7.5817,0 4,3.5817 4,8 c 0,1.421 0.3816,2.75 1.0312,3.906 0.1079,0.192 0.221,0.381 0.3438,0.563 L 12,24 18.625,12.469 c 0.102,-0.151 0.19,-0.311 0.281,-0.469 l 0.063,-0.094 C 19.618,10.75 20,9.421 20,8 20,3.5817 16.418,0 12,0 Z m 0,4 c 2.209,0 4,1.7909 4,4 0,2.209 -1.791,4 -4,4 C 9.7909,12 8,10.209 8,8 8,5.7909 9.7909,4 12,4 Z"
         transform="translate(0,1028.4)"
         id="path4144" />
      <path
         style="fill:#c0392b"
         inkscape:connector-curvature="0"
         d="M 12,3 C 9.2386,3 7,5.2386 7,8 c 0,2.761 2.2386,5 5,5 2.761,0 5,-2.239 5,-5 0,-2.7614 -2.239,-5 -5,-5 z m 0,2 c 1.657,0 3,1.3431 3,3 0,1.6569 -1.343,3 -3,3 C 10.343,11 9,9.6569 9,8 9,6.3431 10.343,5 12,5 Z"
         transform="translate(0,1028.4)"
         id="path4146" />
    </g>
  </g>
</svg>
