<?xml version="1.0" encoding="UTF-8" standalone="no"?>
<!-- Created with Inkscape (http://www.inkscape.org/) -->

<svg
   xmlns:osb="http://www.openswatchbook.org/uri/2009/osb"
   xmlns:dc="http://purl.org/dc/elements/1.1/"
   xmlns:cc="http://creativecommons.org/ns#"
   xmlns:rdf="http://www.w3.org/1999/02/22-rdf-syntax-ns#"
   xmlns:svg="http://www.w3.org/2000/svg"
   xmlns="http://www.w3.org/2000/svg"
   xmlns:xlink="http://www.w3.org/1999/xlink"
   xmlns:sodipodi="http://sodipodi.sourceforge.net/DTD/sodipodi-0.dtd"
   xmlns:inkscape="http://www.inkscape.org/namespaces/inkscape"
   sodipodi:docname="BClogo_inkscape_new.svg"
   inkscape:version="0.91 r13725"
   version="1.1"
   id="svg3001"
   height="50"
   width="141">
  <defs
     id="defs3">
    <linearGradient
       inkscape:collect="always"
       id="linearGradient6252">
      <stop
         style="stop-color:#ffffff;stop-opacity:1;"
         offset="0"
         id="stop6254" />
      <stop
         style="stop-color:#ffffff;stop-opacity:0;"
         offset="1"
         id="stop6256" />
    </linearGradient>
    <linearGradient
       id="linearGradient6162">
      <stop
         style="stop-color:#ffffff;stop-opacity:1;"
         offset="0"
         id="stop6164" />
      <stop
         style="stop-color:#ffffff;stop-opacity:0;"
         offset="1"
         id="stop6166" />
    </linearGradient>
    <linearGradient
       id="linearGradient3785"
       osb:paint="gradient">
      <stop
         style="stop-color:#323232;stop-opacity:1;"
         offset="0"
         id="stop3787" />
      <stop
         style="stop-color:#323232;stop-opacity:0;"
         offset="1"
         id="stop3789" />
    </linearGradient>
    <linearGradient
       inkscape:collect="always"
       xlink:href="#linearGradient6162"
       id="linearGradient6172"
       x1="168.33333"
       y1="37.682899"
       x2="168.33333"
       y2="97.062935"
       gradientUnits="userSpaceOnUse" />
    <linearGradient
       inkscape:collect="always"
       xlink:href="#linearGradient6252"
       id="linearGradient6639"
       gradientUnits="userSpaceOnUse"
       x1="165.30208"
       y1="27.387999"
       x2="165.30208"
       y2="99.892921" />
    <linearGradient
       inkscape:collect="always"
       xlink:href="#linearGradient6252"
       id="linearGradient6657"
       gradientUnits="userSpaceOnUse"
       x1="165.30208"
       y1="27.387999"
       x2="165.30208"
       y2="99.892921" />
    <linearGradient
       inkscape:collect="always"
       xlink:href="#linearGradient6252"
       id="linearGradient6660"
       gradientUnits="userSpaceOnUse"
       x1="165.30208"
       y1="27.387999"
       x2="165.30208"
       y2="99.892921"
       gradientTransform="matrix(0.1999705,0,0,0.1999705,84.45664,10.025734)" />
  </defs>
  <sodipodi:namedview
     id="base"
     pagecolor="#ffffff"
     bordercolor="#666666"
     borderopacity="1.0"
     inkscape:pageopacity="0.0"
     inkscape:pageshadow="2"
     inkscape:zoom="9.6000001"
     inkscape:cx="106.91185"
     inkscape:cy="24.101305"
     inkscape:document-units="mm"
     inkscape:current-layer="layer1"
     showgrid="false"
     inkscape:snap-global="true"
     inkscape:window-width="1366"
     inkscape:window-height="705"
     inkscape:window-x="-8"
     inkscape:window-y="-8"
     inkscape:window-maximized="1"
     showguides="true"
     inkscape:guide-bbox="true"
     width="51mm"
     units="px" />
  <metadata
     id="metadata3005">
    <rdf:RDF>
      <cc:Work
         rdf:about="">
        <dc:format>image/svg+xml</dc:format>
        <dc:type
           rdf:resource="http://purl.org/dc/dcmitype/StillImage" />
        <dc:title></dc:title>
        <dc:creator>
          <cc:Agent>
            <dc:title>Rihard Rožár</dc:title>
          </cc:Agent>
        </dc:creator>
      </cc:Work>
    </rdf:RDF>
  </metadata>
  <g
     style="display:inline"
     inkscape:label="kópia pRIEHLAD"
     id="g6643"
     inkscape:groupmode="layer"
     transform="translate(0,-127.16533)" />
  <g
     inkscape:groupmode="layer"
     id="layer11"
     inkscape:label="bg"
     style="display:inline"
     transform="translate(0,-127.16533)" />
  <g
     inkscape:groupmode="layer"
     id="layer6"
     inkscape:label="font"
     style="display:inline"
     transform="translate(0,-127.16533)" />
  <g
     inkscape:groupmode="layer"
     id="layer1"
     inkscape:label="zem"
     transform="translate(0,-127.16533)">
    <g
       id="g3025"
       inkscape:export-xdpi="69.023384"
       inkscape:export-ydpi="69.023384"
       transform="matrix(0.92031153,0,0,0.92031153,0.57338039,127.74644)">
      <g
         id="g4228"
         transform="translate(-105,-58.229166)">
        <path
           inkscape:connector-curvature="0"
           style="display:inline;fill:#d7512d;fill-opacity:1;fill-rule:nonzero;stroke:none"
           d="m 224.58851,58.684328 c -2.83837,0 -5.49359,0.785975 -7.75,2.125 -0.58508,0.34721 -1.15994,0.736629 -1.6875,1.15625 -0.0194,0.01554 -0.043,0.04689 -0.0625,0.0625 -1.63799,1.316851 -2.94195,2.934881 -3.875,4.8125 -0.0113,0.02179 -0.0516,0.04067 -0.0625,0.0625 -0.7173,1.461354 -1.16849,3.066361 -1.34375,4.75 -0.0414,0.397365 -0.0785,0.808265 -0.0937,1.21875 -0.14463,-0.203981 -0.29885,-0.396292 -0.46875,-0.59375 -1.51921,-1.765478 -4.24627,-2.906173 -6.4375,-2.90625 -2.33966,8e-5 -5.23127,1.282713 -6.75,3.34375 -1.48925,2.021208 -1.84375,4.25886 -1.84375,6.21875 l 0,0.21875 c -0.59606,-0.2856 -1.12927,-0.720054 -1.75,-0.9375 -1.80835,-0.633392 -3.76567,-0.968719 -5.78125,-0.96875 -3.03981,2.9e-5 -6.07591,0.641474 -8.71875,2.15625 -1.00621,0.576737 -1.84738,1.365852 -2.6875,2.15625 -1.17647,-1.28441 -2.51571,-2.405872 -4.03125,-3.03125 -2.41123,-0.994867 -4.94667,-1.281225 -7.78125,-1.28125 -2.66726,2.7e-5 -5.17944,0.354383 -7.53125,1.3125 -0.54338,0.221385 -1.03841,0.560281 -1.5625,0.84375 -0.26023,-0.183617 -0.52517,-0.426551 -0.78125,-0.5625 -1.79783,-0.954357 -3.90718,-1.53121 -6.03125,-1.53125 -1.23026,2.3e-5 -2.52868,0.293782 -3.8125,0.78125 -0.76085,-0.321028 -1.4854,-0.393163 -2.21875,-0.5 -0.16662,-1.903296 -1.03541,-4.174854 -2.53125,-5.53125 -2.05442,-1.862449 -4.40361,-2.187447 -6.25,-2.1875 l -18.4375,0 c -1.76456,5.4e-5 -4.11688,0.42171 -6.03125,2.0625 -1.76366,1.511803 -2.8125,4.180142 -2.8125,6.25 0,2.027216 0.89091,4.557995 2.65625,6.15625 1.91683,1.73561 4.31681,2.187543 6.1875,2.1875 l 0.40625,0 0,14.843752 c -2e-5,2.09492 0.48595,4.63915 2.375,6.6875 1.59922,1.73411 4.27667,2.78125 6.46875,2.78125 2.08376,0 4.80409,-0.97716 6.4375,-2.75 1.33655,-1.45068 1.83314,-3.05356 2.09375,-4.625 0.25574,1.58802 0.74648,3.23952 2,4.625 1.57168,1.73712 4.17432,2.75 6.3125,2.75 2.16138,0 4.77845,-1.12164 6.25,-2.6875 1.04552,-1.11257 1.58293,-2.45685 1.9375,-3.8125 0.10988,0.21225 0.15733,0.45164 0.28125,0.65625 1.16666,1.92636 2.91703,3.41818 4.75,4.375 1.96788,1.02727 4.18791,1.46875 6.34375,1.46875 2.15545,0 4.31708,-0.34397 6.34375,-1.1875 0.16316,-0.0679 0.30703,-0.20854 0.46875,-0.28125 1.25055,0.80362 2.69401,1.46875 4.3125,1.46875 1.91102,0 4.14276,-0.80316 5.65625,-2.125 0.13335,-0.11647 0.24279,-0.33425 0.375,-0.46875 2.75549,1.74489 6.06709,2.5625 9.375,2.5625 2.08219,0 4.13819,-0.27879 6.09375,-0.9375 1.36073,-0.45835 2.60585,-1.11411 3.78125,-1.90625 1.61237,1.8811 4.33422,2.875 6.4375,2.875 2.16324,0 4.66425,-1.12981 6.09375,-2.59375 0.23353,-0.23916 0.30306,-0.55266 0.5,-0.8125 0.28747,0.37065 0.4878,0.73783 0.90625,1.15625 1.74208,1.7422 4.13311,2.25 5.6875,2.25 1.32554,0 2.81761,-0.53006 4.21875,-1.3125 1.38623,0.76912 2.8778,1.3125 4.1875,1.3125 2.12837,0 4.70983,-1.02648 6.28125,-2.71875 0.14996,-0.1615 0.17973,-0.36246 0.3125,-0.53125 2.98684,2.19203 6.71869,3.25 10.46875,3.25 1.95217,0 3.91876,-0.21188 5.875,-0.875 1.71071,-0.57991 3.27369,-1.38649 4.625,-2.4375 1.16105,-0.90305 2.29186,-2.00258 3.1875,-3.53125 0.71039,-1.21263 1.37492,-2.6853 1.375,-4.687505 -3e-5,-0.88673 -0.22314,-1.945332 -0.65625,-2.999997 0.66002,-1.419859 0.96873,-2.915809 0.96875,-4.125 -3e-5,-2.494672 -0.68596,-4.916446 -1.8125,-7.03125 -1.26974,-2.383479 -3.25731,-4.391001 -5.5625,-5.75 -2.50469,-1.476512 -5.43891,-2.15622 -8.40625,-2.15625 -0.76748,1e-5 -1.5289,0.06639 -2.28125,0.15625 0.42928,-1.345342 0.6875,-2.796728 0.6875,-4.28125 0,-2.693566 -0.80164,-5.185422 -2.125,-7.34375 -0.005,-0.03592 0.005,-0.05807 0,-0.09375 -0.1353,-0.218049 -0.29088,-0.445915 -0.4375,-0.65625 -0.074,-0.10592 -0.14193,-0.208619 -0.21875,-0.3125 -0.33869,-0.459411 -0.70322,-0.895506 -1.09375,-1.3125 -0.13557,-0.144077 -0.29608,-0.298869 -0.4375,-0.4375 -0.45673,-0.449709 -0.89225,-0.86135 -1.40625,-1.25 -0.4197,-0.318377 -0.85841,-0.569871 -1.3125,-0.84375 -0.66772,-0.402863 -1.39169,-0.76489 -2.125,-1.0625 -1.76444,-0.716088 -3.68667,-1.125 -5.71875,-1.125 z"
           id="path6647" />
        <g
           transform="translate(13.505177,36.330161)"
           style="font-style:normal;font-variant:normal;font-weight:normal;font-stretch:normal;font-size:40px;line-height:125%;font-family:'Arial Rounded MT Bold';-inkscape-font-specification:'Arial Rounded MT Bold';letter-spacing:0px;word-spacing:0px;display:inline;fill:#ffffff;fill-opacity:1;stroke:none"
           id="flowRoot6335">
          <path
             d="m 119.25,44.250362 -6.32812,0 0,20.800781 c -2e-5,1.197918 -0.26695,2.086589 -0.80079,2.666015 -0.53386,0.579427 -1.22397,0.869141 -2.07031,0.869141 -0.85939,0 -1.55925,-0.292969 -2.09961,-0.878906 -0.54037,-0.585937 -0.81055,-1.471352 -0.81054,-2.65625 l 0,-20.800781 -6.32813,0 c -0.989586,2.3e-5 -1.725262,-0.218075 -2.207031,-0.654297 -0.481772,-0.436173 -0.722657,-1.012345 -0.722657,-1.728516 0,-0.74216 0.250651,-1.328097 0.751954,-1.757812 0.5013,-0.42966 1.227211,-0.644503 2.177734,-0.644532 l 18.4375,0 c 1.00258,2.9e-5 1.74802,0.221383 2.23633,0.664063 0.48825,0.442736 0.7324,1.022162 0.73242,1.738281 -2e-5,0.716171 -0.24742,1.292343 -0.74219,1.728516 -0.49481,0.436222 -1.237,0.65432 -2.22656,0.654297 z"
             style="font-family:'Arial Rounded MT Bold';-inkscape-font-specification:'Arial Rounded MT Bold';letter-spacing:-1px;fill:#ffffff"
             id="path3032"
             inkscape:connector-curvature="0" />
          <path
             d="m 129.57812,60.890987 0,4.453125 c 0,1.08073 -0.25391,1.891276 -0.76171,2.43164 -0.50782,0.540365 -1.15235,0.810547 -1.9336,0.810547 -0.76823,0 -1.39974,-0.273438 -1.89453,-0.820312 -0.49479,-0.546875 -0.74219,-1.354165 -0.74219,-2.421875 l 0,-14.84375 c 0,-2.395814 0.86589,-3.593729 2.59766,-3.59375 0.88541,2.1e-5 1.52343,0.279968 1.91406,0.839843 0.39062,0.559916 0.60546,1.386738 0.64453,2.480469 0.63802,-1.093731 1.29231,-1.920553 1.96289,-2.480469 0.67057,-0.559875 1.56575,-0.839822 2.68555,-0.839843 1.11978,2.1e-5 2.20702,0.279968 3.26172,0.839843 1.05467,0.559916 1.58201,1.302103 1.58203,2.226563 -2e-5,0.651059 -0.22463,1.188168 -0.67383,1.611328 -0.44923,0.423193 -0.93426,0.634781 -1.45508,0.634766 -0.19532,1.5e-5 -0.66733,-0.120427 -1.41601,-0.361329 -0.74871,-0.240868 -1.40952,-0.361311 -1.98242,-0.361328 -0.78126,1.7e-5 -1.41928,0.205095 -1.91407,0.615235 -0.4948,0.410172 -0.87891,1.018895 -1.15234,1.826172 -0.27344,0.807305 -0.46225,1.76759 -0.56641,2.880859 -0.10417,1.113291 -0.15625,2.470712 -0.15625,4.072266 z"
             style="font-family:'Arial Rounded MT Bold';-inkscape-font-specification:'Arial Rounded MT Bold';letter-spacing:-1px;fill:#ffffff"
             id="path3034"
             inkscape:connector-curvature="0" />
          <path
             d="m 154.26172,65.578487 c -1.28908,1.002605 -2.53582,1.754558 -3.74024,2.255859 -1.20443,0.501302 -2.55534,0.751953 -4.05273,0.751953 -1.36719,0 -2.56837,-0.270182 -3.60352,-0.810547 -1.03516,-0.540364 -1.83268,-1.272785 -2.39257,-2.197265 -0.5599,-0.924476 -0.83985,-1.927079 -0.83985,-3.007813 0,-1.458326 0.46224,-2.701815 1.38672,-3.730469 0.92448,-1.028635 2.19401,-1.718739 3.80859,-2.070312 0.33854,-0.07811 1.17838,-0.253895 2.51954,-0.527344 1.34113,-0.273425 2.49022,-0.524076 3.44726,-0.751953 0.95702,-0.227852 1.99543,-0.504544 3.11524,-0.830078 -0.0651,-1.406235 -0.34833,-2.438135 -0.84961,-3.095703 -0.50132,-0.657535 -1.53973,-0.986311 -3.11524,-0.986328 -1.35417,1.7e-5 -2.37305,0.188819 -3.05664,0.566406 -0.6836,0.377621 -1.26954,0.944026 -1.75781,1.699219 -0.48829,0.755222 -0.83334,1.253269 -1.03516,1.49414 -0.20183,0.240899 -0.63477,0.361342 -1.29883,0.361328 -0.59896,1.4e-5 -1.11654,-0.192043 -1.55273,-0.576172 -0.4362,-0.3841 -0.6543,-0.875636 -0.6543,-1.474609 0,-0.937484 0.33203,-1.848941 0.9961,-2.734375 0.66406,-0.885398 1.69921,-1.614563 3.10547,-2.1875 1.40624,-0.572896 3.15754,-0.859354 5.2539,-0.859375 2.34374,2.1e-5 4.18618,0.276714 5.52735,0.830078 1.34112,0.553405 2.28839,1.429056 2.84179,2.626953 0.55337,1.197934 0.83006,2.786474 0.83008,4.765625 -2e-5,1.250012 -0.003,2.311209 -0.01,3.183594 -0.007,0.872405 -0.0163,1.842456 -0.0293,2.910156 -2e-5,1.00261 0.16599,2.047531 0.49805,3.134766 0.332,1.087242 0.49802,1.787111 0.49804,2.099609 -2e-5,0.546876 -0.25718,1.044923 -0.77148,1.494141 -0.51435,0.449218 -1.09703,0.673828 -1.74805,0.673828 -0.54689,0 -1.08726,-0.257162 -1.62109,-0.771484 -0.53387,-0.514322 -1.10028,-1.259764 -1.69922,-2.236328 z m -0.35156,-7.714844 c -0.78127,0.286468 -1.91734,0.589202 -3.40821,0.908203 -1.49089,0.319019 -2.52279,0.553394 -3.0957,0.703125 -0.57293,0.149748 -1.1198,0.442716 -1.64063,0.878906 -0.52084,0.436205 -0.78125,1.044929 -0.78125,1.826172 0,0.807297 0.30599,1.494145 0.91797,2.060547 0.61197,0.566409 1.41275,0.849612 2.40235,0.849609 1.05467,3e-6 2.02798,-0.231116 2.91992,-0.693359 0.89191,-0.462235 1.54621,-1.057938 1.96289,-1.787109 0.48176,-0.807286 0.72264,-2.135409 0.72266,-3.984375 z"
             style="font-family:'Arial Rounded MT Bold';-inkscape-font-specification:'Arial Rounded MT Bold';letter-spacing:-1px;fill:#ffffff"
             id="path3036"
             inkscape:connector-curvature="0" />
          <path
             d="m 182.65625,61.984737 c -2e-5,0.664068 -0.19859,1.373702 -0.5957,2.128906 -0.39716,0.755211 -1.00263,1.474612 -1.81641,2.158203 -0.81382,0.683595 -1.83921,1.233725 -3.07617,1.650391 -1.237,0.416666 -2.63022,0.624999 -4.17969,0.625 -3.29428,-10e-7 -5.86589,-0.960286 -7.71484,-2.88086 C 163.42448,63.745809 162.5,61.170941 162.5,57.941768 c 0,-2.187488 0.42317,-4.12108 1.26953,-5.800781 0.84635,-1.67967 2.07031,-2.978497 3.67188,-3.896485 1.60155,-0.917948 3.51561,-1.376932 5.74218,-1.376953 1.3802,2.1e-5 2.64647,0.201844 3.79883,0.605469 1.15233,0.403666 2.12889,0.924499 2.92969,1.5625 0.80076,0.638039 1.41274,1.318377 1.83594,2.041015 0.42315,0.722673 0.63474,1.3965 0.63476,2.021485 -2e-5,0.638035 -0.23765,1.178399 -0.71289,1.621094 -0.47528,0.442721 -1.05145,0.664075 -1.72851,0.664062 -0.44273,1.3e-5 -0.81057,-0.113919 -1.10352,-0.341797 -0.29299,-0.227851 -0.62176,-0.595689 -0.98633,-1.103515 -0.65106,-0.989569 -1.33139,-1.731755 -2.04101,-2.226563 -0.70965,-0.494775 -1.61134,-0.74217 -2.70508,-0.742187 -1.57553,1.7e-5 -2.84506,0.61525 -3.8086,1.845703 -0.96354,1.230483 -1.44531,2.913424 -1.44531,5.048828 0,1.002613 0.12369,1.923836 0.3711,2.763672 0.24738,0.83985 0.60546,1.555995 1.07421,2.148437 0.46875,0.592453 1.03515,1.041671 1.69922,1.347656 0.66406,0.305994 1.39322,0.458988 2.1875,0.458985 1.0677,3e-6 1.98241,-0.247392 2.74414,-0.742188 0.76171,-0.494787 1.43553,-1.249994 2.02149,-2.265625 0.3255,-0.598951 0.67706,-1.0677 1.05469,-1.40625 0.37758,-0.338533 0.83982,-0.507804 1.38671,-0.507812 0.65103,8e-6 1.19139,0.247404 1.6211,0.742187 0.42966,0.494799 0.64451,1.022142 0.64453,1.582032 z"
             style="font-family:'Arial Rounded MT Bold';-inkscape-font-specification:'Arial Rounded MT Bold';letter-spacing:-1px;fill:#ffffff"
             id="path3038"
             inkscape:connector-curvature="0" />
          <path
             d="m 199.56641,66.144893 -4.70704,-7.734375 -2.89062,2.734375 0,4.238281 c -1e-5,1.028648 -0.27019,1.819662 -0.81055,2.373047 -0.54037,0.553385 -1.16211,0.830078 -1.86523,0.830078 -0.82032,0 -1.46485,-0.273438 -1.9336,-0.820312 -0.46875,-0.546875 -0.70312,-1.354165 -0.70312,-2.421875 l 0,-22.734375 c 0,-1.18487 0.22786,-2.086561 0.68359,-2.705079 0.45573,-0.61846 1.10677,-0.927705 1.95313,-0.927734 0.8203,2.9e-5 1.47135,0.279977 1.95312,0.839844 0.48177,0.559923 0.72265,1.386745 0.72266,2.480469 l 0,12.929687 5.99609,-6.289062 c 0.74218,-0.78123 1.30858,-1.315084 1.69922,-1.601563 0.39061,-0.286437 0.86587,-0.429666 1.42578,-0.429687 0.66405,2.1e-5 1.21743,0.211609 1.66016,0.634765 0.44269,0.423197 0.66404,0.953796 0.66406,1.591797 -2e-5,0.781268 -0.72267,1.822934 -2.16797,3.125 l -2.83203,2.597656 5.46875,8.59375 c 0.40363,0.638025 0.69334,1.123051 0.86914,1.455078 0.17576,0.332035 0.26365,0.647789 0.26367,0.947266 -2e-5,0.846356 -0.23114,1.513673 -0.69335,2.001953 -0.46226,0.488281 -1.07099,0.732422 -1.82618,0.732422 -0.65106,0 -1.15236,-0.175781 -1.5039,-0.527344 -0.35158,-0.351562 -0.82684,-0.989582 -1.42578,-1.914062 z"
             style="font-family:'Arial Rounded MT Bold';-inkscape-font-specification:'Arial Rounded MT Bold';letter-spacing:-1px;fill:#ffffff"
             id="path3040"
             inkscape:connector-curvature="0" />
          <path
             d="m 213.58594,49.933955 0,15.410157 c -1e-5,1.06771 -0.25392,1.875 -0.76172,2.421875 -0.50782,0.546874 -1.15235,0.820312 -1.9336,0.820312 -0.78125,0 -1.41601,-0.279948 -1.90429,-0.839844 -0.48829,-0.559895 -0.73243,-1.360675 -0.73242,-2.402343 l 0,-15.253907 c -1e-5,-1.054668 0.24413,-1.848938 0.73242,-2.382812 0.48828,-0.533833 1.12304,-0.80076 1.90429,-0.800781 0.78125,2.1e-5 1.42578,0.266948 1.9336,0.800781 0.5078,0.533874 0.76171,1.276061 0.76172,2.226562 z m -2.63672,-5.507812 c -0.74219,2.4e-5 -1.37696,-0.227841 -1.9043,-0.683594 -0.52734,-0.455704 -0.79102,-1.100235 -0.79101,-1.933594 -1e-5,-0.755181 0.27018,-1.376925 0.81054,-1.865234 0.54036,-0.488253 1.16862,-0.732393 1.88477,-0.732422 0.6901,2.9e-5 1.30208,0.221383 1.83594,0.664063 0.53384,0.442736 0.80077,1.087266 0.80078,1.933593 -1e-5,0.820338 -0.26043,1.461614 -0.78125,1.923828 -0.52084,0.462264 -1.13933,0.693384 -1.85547,0.69336 z"
             style="font-family:'Arial Rounded MT Bold';-inkscape-font-specification:'Arial Rounded MT Bold';letter-spacing:-1px;fill:#ffffff"
             id="path3042"
             inkscape:connector-curvature="0" />
          <path
             d="m 232.99609,59.055049 -10.42968,0 c 0.013,1.210945 0.25715,2.278653 0.73242,3.203125 0.47525,0.924484 1.10676,1.621098 1.89453,2.089844 0.78775,0.468753 1.65689,0.703128 2.60742,0.703125 0.63801,3e-6 1.22069,-0.07487 1.74805,-0.22461 0.52733,-0.149736 1.03839,-0.38411 1.5332,-0.703125 0.49478,-0.319006 0.95051,-0.660802 1.36719,-1.02539 0.41665,-0.364578 0.95701,-0.859369 1.62109,-1.484375 0.27342,-0.234368 0.66405,-0.351556 1.17188,-0.351563 0.54685,7e-6 0.98956,0.149747 1.32812,0.449219 0.33852,0.299485 0.50779,0.722662 0.50781,1.269531 -2e-5,0.481776 -0.18882,1.044926 -0.5664,1.689453 -0.37763,0.644534 -0.94729,1.263023 -1.70899,1.855469 -0.76173,0.592449 -1.71876,1.083985 -2.87109,1.47461 -1.15236,0.390624 -2.47723,0.585937 -3.97461,0.585937 -3.42449,0 -6.08724,-0.976562 -7.98828,-2.929687 -1.90104,-1.953121 -2.85156,-4.602858 -2.85156,-7.949219 0,-1.575509 0.23437,-3.037096 0.70312,-4.384766 0.46875,-1.34764 1.15234,-2.503238 2.05078,-3.466797 0.89844,-0.963522 2.00521,-1.702454 3.32032,-2.216797 1.31509,-0.514301 2.77342,-0.771463 4.375,-0.771484 2.08332,2.1e-5 3.87042,0.439474 5.36132,1.318359 1.49087,0.878926 2.60741,2.014992 3.34961,3.408204 0.74217,1.393244 1.11326,2.812513 1.11328,4.257812 -2e-5,1.341157 -0.38413,2.210297 -1.15234,2.607422 -0.76825,0.397145 -1.84898,0.595712 -3.24219,0.595703 z m -10.42968,-3.027344 9.66796,0 c -0.13022,-1.822902 -0.62176,-3.186833 -1.4746,-4.091797 -0.85288,-0.90493 -1.97593,-1.357404 -3.36915,-1.357421 -1.32813,1.7e-5 -2.41862,0.459001 -3.27148,1.376953 -0.85287,0.917984 -1.37045,2.275404 -1.55273,4.072265 z"
             style="font-family:'Arial Rounded MT Bold';-inkscape-font-specification:'Arial Rounded MT Bold';letter-spacing:-1px;fill:#ffffff"
             id="path3044"
             inkscape:connector-curvature="0" />
        </g>
        <g
           transform="translate(23.125307,-1.7692548)"
           id="g4206">
          <path
             style="display:inline;fill:#d7512d;fill-opacity:1;fill-rule:nonzero;stroke:none"
             d="m 195.11506,80.565084 c 0.009,-0.0092 0.0295,-0.01272 0.0367,-0.02292 0.0756,-0.10805 0.1104,-0.223749 0.11918,-0.339224 0.009,-0.115477 -0.01,-0.229294 -0.0504,-0.33464 -0.0405,-0.105347 -0.10194,-0.20197 -0.1742,-0.279629 -0.0723,-0.07766 -0.15652,-0.137198 -0.24296,-0.169613 -0.0864,-0.03241 -0.13598,-0.08684 -0.16502,-0.160444 -0.029,-0.07361 -0.0394,-0.165932 -0.0367,-0.265877 0.005,-0.199889 0.0491,-0.434846 0.0275,-0.650942 -0.0216,-0.216096 -0.02,-0.443195 -0.009,-0.664696 0.0108,-0.221499 0.0334,-0.438117 0.055,-0.632605 0.0108,-0.09724 0.001,-0.225876 -0.0321,-0.357561 -0.0331,-0.131683 -0.0913,-0.268912 -0.16961,-0.385063 -0.0783,-0.116154 -0.17762,-0.210646 -0.30255,-0.261295 -0.0625,-0.02532 -0.13192,-0.04168 -0.20629,-0.04126 -0.0744,3.6e-4 -0.15651,0.01801 -0.24295,0.05043 -0.0864,0.03241 -0.15878,0.04952 -0.22462,0.05501 -0.0659,0.0055 -0.12234,3.59e-4 -0.16962,-0.01834 -0.0473,-0.01857 -0.0885,-0.05192 -0.11918,-0.09168 -0.0307,-0.03976 -0.0526,-0.08862 -0.0688,-0.146692 -0.0324,-0.116151 -0.0364,-0.263287 -0.0229,-0.435491 0.0135,-0.172202 0.0439,-0.36772 0.0871,-0.573011 0.0216,-0.102646 0.0289,-0.196678 0.0229,-0.284214 -0.006,-0.08754 -0.0256,-0.17022 -0.055,-0.247542 -0.0396,-0.104353 -0.11932,-0.197156 -0.19253,-0.293383 -0.0287,0.28431 -0.055,0.569796 -0.055,0.861812 0,2.189816 0.8344,4.178893 2.1912,5.688868 z"
             id="path5672"
             inkscape:connector-curvature="0" />
          <path
             style="display:inline;fill:#ffffff;fill-opacity:1;fill-rule:nonzero;stroke:none"
             d="m 202.38086,66.982393 c 0,0 -0.0275,0.06265 -0.1421,0.169612 -0.11461,0.106962 -0.31478,0.256709 -0.65095,0.440073 -0.16808,0.09168 -0.27294,0.136759 -0.34839,0.15586 -0.0754,0.0191 -0.123,0.01528 -0.16503,0 -0.042,-0.01528 -0.0789,-0.03897 -0.14669,-0.05043 -0.0678,-0.01146 -0.1635,-0.01223 -0.3163,0.01834 -0.1528,0.03056 -0.26645,0.07124 -0.34381,0.123771 -0.0774,0.05253 -0.11842,0.115366 -0.13752,0.187947 -0.0191,0.07258 -0.0128,0.156815 0.009,0.247542 0.022,0.09073 0.0596,0.191004 0.10543,0.297967 0.0458,0.106962 0.0613,0.194251 0.0642,0.265877 0.003,0.07163 -0.008,0.127591 -0.0275,0.169612 -0.0382,0.08404 -0.10085,0.114603 -0.10085,0.114603 0,0 -0.0611,-0.122243 -0.16045,-0.183364 -0.0497,-0.03056 -0.1083,-0.04584 -0.17419,-0.02292 -0.0659,0.02292 -0.13905,0.08404 -0.21546,0.206285 -0.0382,0.06112 -0.0802,0.104574 -0.12377,0.137523 -0.0436,0.03295 -0.0885,0.05386 -0.13293,0.05959 -0.0444,0.0057 -0.0876,-0.0024 -0.12836,-0.02292 -0.0407,-0.02053 -0.0776,-0.05501 -0.11002,-0.10085 -0.0649,-0.09168 -0.10983,-0.229969 -0.1146,-0.417153 -0.005,-0.187184 0.0321,-0.421737 0.12377,-0.696783 0.0917,-0.275046 0.1146,-0.44886 0.0917,-0.550092 -0.0115,-0.05062 -0.0372,-0.08438 -0.0688,-0.10085 -0.0315,-0.01648 -0.0688,-0.01605 -0.1146,-0.0046 -0.0917,0.02292 -0.20629,0.09512 -0.32089,0.192532 -0.1146,0.09741 -0.22921,0.216981 -0.32089,0.339224 -0.18336,0.244485 -0.21392,0.368256 -0.27504,0.421737 -0.0306,0.02674 -0.0688,0.03763 -0.13753,0.03667 -0.0688,-9.6e-4 -0.16808,-0.01222 -0.32088,-0.0275 -0.0764,-0.0076 -0.14748,-0.03035 -0.21087,-0.05959 -0.0634,-0.02925 -0.11852,-0.06637 -0.16961,-0.114602 -0.10219,-0.09646 -0.18108,-0.228441 -0.23838,-0.385065 -0.0239,-0.06547 -0.029,-0.151246 -0.0458,-0.224621 -2.2178,1.356002 -3.75955,3.692382 -4.03401,6.408573 0.0732,0.09623 0.15289,0.189029 0.19253,0.293382 0.0294,0.07732 0.049,0.160005 0.055,0.247542 0.006,0.08754 -0.001,0.181568 -0.0229,0.284214 -0.0432,0.205291 -0.0736,0.40081 -0.0871,0.573012 -0.0135,0.172203 -0.01,0.319338 0.0229,0.435489 0.0162,0.05808 0.038,0.106935 0.0688,0.146692 0.0307,0.03976 0.0719,0.07311 0.11918,0.09168 0.0473,0.01857 0.10377,0.02382 0.16962,0.01834 0.0658,-0.0055 0.13818,-0.02259 0.22462,-0.05501 0.0864,-0.03242 0.16859,-0.05 0.24296,-0.05043 0.0744,-3.6e-4 0.14381,0.01593 0.20628,0.04126 0.12493,0.05065 0.22422,0.145141 0.30255,0.261294 0.0783,0.116151 0.13652,0.253382 0.16961,0.385063 0.0331,0.131685 0.0429,0.260318 0.0321,0.357561 -0.0216,0.19449 -0.0442,0.411106 -0.055,0.632607 -0.0108,0.221499 -0.0124,0.448598 0.009,0.664694 0.0216,0.216096 -0.0221,0.451053 -0.0275,0.650942 -0.003,0.09995 0.008,0.19227 0.0367,0.265877 0.029,0.07361 0.0786,0.128031 0.16503,0.160444 0.0864,0.03242 0.1707,0.09195 0.24295,0.169613 0.0723,0.07766 0.13368,0.174282 0.1742,0.279629 0.0405,0.105348 0.0592,0.219163 0.0504,0.33464 -0.009,0.115475 -0.0436,0.231174 -0.11918,0.339224 -0.007,0.01022 -0.0276,0.0137 -0.0367,0.02292 1.56088,1.7371 3.81602,2.837557 6.33522,2.837557 4.70902,0 8.52643,-3.817411 8.52643,-8.526424 0,-3.544064 -2.16234,-6.584161 -5.23963,-7.870902 -0.0377,0.02933 -0.0746,0.06458 -0.1146,0.07793 -0.1146,0.0382 -0.22462,0.02292 -0.22462,0.02292 0,0 -0.10391,0.04278 -0.25671,0.09627 -0.1528,0.05348 -0.35298,0.11613 -0.53634,0.146691 -0.0917,0.01528 -0.21202,-5.8e-4 -0.34381,-0.03209 -0.13179,-0.03152 -0.27352,-0.07869 -0.4034,-0.128355 -0.25976,-0.09932 -0.47675,-0.206285 -0.47675,-0.206285 z"
             id="path5536"
             inkscape:connector-curvature="0" />
          <path
             style="display:inline;fill:#d7512d;fill-opacity:1;fill-rule:nonzero;stroke:none"
             d="m 197.0142,67.607546 c 0.0168,0.07337 0.0219,0.159155 0.0458,0.224621 0.0573,0.156623 0.13619,0.288607 0.23837,0.385065 0.0511,0.04823 0.10623,0.08535 0.16962,0.114602 0.0634,0.02925 0.13446,0.05195 0.21087,0.05959 0.1528,0.01528 0.25212,0.02655 0.32088,0.02751 0.0688,9.6e-4 0.10697,-0.0099 0.13752,-0.03667 0.0611,-0.05348 0.0917,-0.177252 0.27505,-0.421737 0.0917,-0.122243 0.20628,-0.241812 0.32089,-0.339224 0.1146,-0.09741 0.2292,-0.169611 0.32089,-0.192532 0.0458,-0.01146 0.0831,-0.01189 0.1146,0.0046 0.0315,0.01648 0.0573,0.05024 0.0688,0.100851 0.0229,0.101232 0,0.275046 -0.0917,0.550092 -0.0917,0.275046 -0.12855,0.509599 -0.12377,0.696783 0.005,0.187184 0.0497,0.325471 0.1146,0.417153 0.0325,0.04584 0.0693,0.08032 0.11002,0.100851 0.0407,0.02053 0.084,0.02865 0.12835,0.02292 0.0444,-0.0057 0.0894,-0.02665 0.13294,-0.05959 0.0436,-0.03295 0.0856,-0.0764 0.12377,-0.137523 0.0764,-0.122243 0.14956,-0.183364 0.21546,-0.206285 0.0659,-0.02292 0.12453,-0.0076 0.17419,0.02292 0.0993,0.06112 0.16044,0.183364 0.16044,0.183364 0,0 0.0626,-0.03056 0.10085,-0.114603 0.0191,-0.04202 0.0304,-0.09799 0.0275,-0.169611 -0.003,-0.07163 -0.0183,-0.158916 -0.0642,-0.265878 -0.0458,-0.106963 -0.0835,-0.20724 -0.10543,-0.297967 -0.022,-0.09073 -0.0283,-0.17496 -0.009,-0.247541 0.0191,-0.07258 0.0602,-0.135422 0.13752,-0.187949 0.0774,-0.05253 0.19101,-0.09321 0.34381,-0.12377 0.1528,-0.03056 0.24849,-0.0298 0.3163,-0.01834 0.0678,0.01146 0.10467,0.03514 0.14669,0.05042 0.042,0.01528 0.0896,0.0191 0.16503,0 0.0755,-0.0191 0.18031,-0.06418 0.34839,-0.155859 0.33617,-0.183364 0.53634,-0.333111 0.65094,-0.440074 0.11461,-0.106962 0.14211,-0.169611 0.14211,-0.169611 0,0 0.21698,0.106962 0.47675,0.206284 0.12988,0.04966 0.27161,0.09684 0.4034,0.128355 0.13179,0.03152 0.25212,0.04737 0.3438,0.03209 0.18337,-0.03056 0.38354,-0.09321 0.53634,-0.146691 0.15281,-0.05348 0.25671,-0.09627 0.25671,-0.09627 0,0 0.11002,0.01528 0.22462,-0.02292 0.04,-0.01335 0.0769,-0.0486 0.11461,-0.07793 -1.01152,-0.422958 -2.12185,-0.655526 -3.2868,-0.655526 -1.62718,0 -3.14387,0.465147 -4.43741,1.256043 z"
             id="path3008"
             inkscape:connector-curvature="0" />
          <path
             sodipodi:nodetypes="ccsssssssc"
             inkscape:connector-curvature="0"
             id="path5501"
             d="m 198.96274,75.326364 c -1.22243,1.955881 -0.73346,3.361674 -0.73346,3.361674 0,0 1.83364,3.545037 3.11719,2.567095 1.36217,-1.037839 2.50598,-0.794577 2.81158,-2.444853 0.0996,-0.537545 1.57396,0.900659 2.01701,0 0.80807,-1.642712 -0.42785,-0.97794 0.67233,-2.567095 1.10019,-1.589156 3.17831,-2.200369 1.83364,-3.789524 -1.34466,-1.589155 -3.40015,-1.490814 -3.14701,0.476353 0.2648,2.057725 -2.42211,0.130141 -2.904,0.07374 -2.62658,-0.307422 -2.38373,1.711398 -3.66728,2.322611 z"
             style="display:inline;fill:#d7512d;fill-opacity:1;stroke:#000000;stroke-width:0;stroke-linecap:butt;stroke-linejoin:miter;stroke-miterlimit:4;stroke-dasharray:none;stroke-opacity:1" />
        </g>
      </g>
    </g>
  </g>
  <g
     inkscape:groupmode="layer"
     id="layer12"
     inkscape:label="Vrstva#1"
     style="display:none"
     transform="translate(0,-127.16533)">
    <path
       id="path5647"
       style="display:inline;fill:#d7512d;fill-opacity:1;fill-rule:nonzero;stroke:#000000;stroke-width:0;stroke-linecap:square;stroke-linejoin:round;stroke-miterlimit:4;stroke-dashoffset:0;stroke-opacity:1"
       d="m 39.23958,37.093754 c -6.86475,0 -12.42708,5.562328 -12.42708,12.427083 0,1.716187 0.33401,3.373694 0.96298,4.860777 0.0132,0.03198 0.032,0.05987 0.0458,0.09171 l 5.59448,19.076259 5.82376,19.901672 5.86962,-19.901672 5.59448,-19.167972 0.0917,-0.229284 c 0.57001,-1.425831 0.87134,-3.002222 0.87134,-4.631493 0,-6.864755 -5.56233,-12.427083 -12.42708,-12.42708 z m 0,3.485086 c 4.65609,0 8.43758,3.781485 8.43758,8.437573 0,4.656092 -3.78149,8.437578 -8.43758,8.437578 -4.65609,0 -8.43757,-3.781486 -8.43757,-8.437578 0,-4.656088 3.78148,-8.437573 8.43757,-8.437573 z"
       inkscape:connector-curvature="0"
       sodipodi:nodetypes="sscccccccsssssss" />
  </g>
</svg>
